<svg xmlns="http://www.w3.org/2000/svg" viewBox="0 0 64 64" role="img" aria-label="Underground entrance marker">
  <defs>
    <filter id="shadow" x="-30%" y="-20%" width="160%" height="150%">
      <feDropShadow dx="0" dy="4" stdDeviation="4" flood-color="#000000" flood-opacity="0.45"/>
    </filter>
  </defs>
  <path filter="url(#shadow)" d="M32 4c-12.15 0-22 9.42-22 21.05 0 15.6 18.75 32.65 21.18 34.78a1.25 1.25 0 0 0 1.64 0C35.25 57.7 54 40.65 54 25.05 54 13.42 44.15 4 32 4Z" fill="#343946"/>
  <path d="M32 8c-9.84 0-17.82 7.63-17.82 17.05 0 11.58 12.38 25.03 17.82 30.12 5.44-5.09 17.82-18.54 17.82-30.12C49.82 15.63 41.84 8 32 8Z" fill="#eef3f8"/>
  <path d="M32 12c-7.66 0-13.87 5.93-13.87 13.25 0 8.85 8.92 19.54 13.87 24.7 4.95-5.16 13.87-15.85 13.87-24.7C45.87 17.93 39.66 12 32 12Z" fill="#4d5563"/>
  <path d="M32 17 47 24.5 32 32 17 24.5 32 17Z" fill="#cbd2dc"/>
  <path d="m21 31.3 11 5.5 11-5.5 4 2-15 7.5-15-7.5 4-2Z" fill="#9ca6b4"/>
  <path d="m21 39.25 11 5.5 11-5.5 4 2-15 7.5-15-7.5 4-2Z" fill="#717b8b"/>
  <path d="M32 21.25 39.5 25 32 28.75 24.5 25 32 21.25Z" fill="#f7fbff"/>
</svg>
